<?xml version="1.0" encoding="UTF-8"?>
<svg id="Layer_1" data-name="Layer 1" xmlns="http://www.w3.org/2000/svg" viewBox="0 0 826 472">
  <g id="residence">
    <path d="M304.76,293.17c0-3.57-2.57-6.14-6.43-6.14h-8v20.85h3.14v-8.71h4l4.43,8.71h3.71l-4.85-9.14c2.28-.71,4-2.57,4-5.57ZM293.48,296.46v-6.57h4.71c2.14,0,3.57,1.29,3.57,3.28s-1.43,3.28-3.57,3.28h-4.71Z"/>
    <path d="M365.02,236.49l-4.43-.71c-2.14-.29-4.14-1.14-5.43-2.28-1.29-1.14-1.86-2.71-1.86-4.71,0-4.43,3.14-7.57,8.57-7.57,4.28,0,7,1.14,9.42,3.43l2.86-2.71c-3.43-3.14-6.85-4.43-11.99-4.43-8,0-12.99,4.57-12.99,11.42,0,3.28,1,5.71,3,7.57,1.71,1.57,4.28,2.57,7.43,3l4.71.71c3,.43,4,.86,5.28,2,1.29,1.14,2,3,2,5,0,4.71-3.57,7.57-9.57,7.57-4.57,0-7.71-1.14-10.99-4.43l-3,3c3.86,3.86,7.85,5.28,13.85,5.28,8.42,0,13.99-4.43,13.99-11.42,0-3.28-1.14-6.14-3.43-8-1.71-1.43-3.57-2.14-7.43-2.71Z"/>
    <rect x="339.46" y="287.18" width="3.14" height="20.85"/>
    <path d="M320.47,287.18l-7.57,20.85h3.43l1.43-4.14h8.14l1.43,4.14h3.43l-7.57-20.85h-2.71ZM318.47,301.03l3.28-9.28,3.14,9.28h-6.43Z"/>
    <polygon points="331.18 254.62 310.33 254.62 310.33 240.05 328.03 240.05 328.03 236.06 310.33 236.06 310.33 221.92 331.18 221.92 331.18 218.07 306.04 218.07 306.04 258.47 331.18 258.47 331.18 254.62"/>
    <path d="M261.78,240.48h9.71l9.14,17.99h5l-9.57-18.42c5.28-1.14,8.85-5,8.85-10.85,0-7-5-11.28-11.99-11.28h-15.56v40.41h4.28v-17.85h.14ZM261.78,221.92h10.85c4.71,0,8.14,2.57,8.14,7.43s-3.28,7.43-8.14,7.43h-10.85v-14.85Z"/>
    <polygon points="354.59 200.07 379.72 200.07 379.72 196.08 358.88 196.08 358.88 181.51 376.58 181.51 376.58 177.66 358.88 177.66 358.88 163.38 379.72 163.38 379.72 159.52 354.59 159.52 354.59 200.07"/>
    <polygon points="268.78 200.07 273.06 200.07 273.06 163.38 284.77 163.38 284.77 159.52 257.07 159.52 257.07 163.38 268.78 163.38 268.78 200.07"/>
    <polygon points="308.04 181.51 327.18 181.51 327.18 200.07 331.46 200.07 331.46 159.52 327.18 159.52 327.18 177.66 308.04 177.66 308.04 159.52 303.62 159.52 303.62 200.07 308.04 200.07 308.04 181.51"/>
    <polygon points="473.25 258.47 498.38 258.47 498.38 254.62 477.53 254.62 477.53 240.05 495.24 240.05 495.24 236.06 477.53 236.06 477.53 221.92 498.38 221.92 498.38 218.07 473.25 218.07 473.25 258.47"/>
    <path d="M534.94,287.18l-7.57,20.85h3.43l1.43-4.14h8.14l1.43,4.14h3.43l-7.57-20.85h-2.71ZM533.08,301.03l3.28-9.28,3.14,9.28h-6.43Z"/>
    <path d="M584.2,221.49c5,0,8.57,3.28,9.57,8.14h4.43c-1.43-7.57-6.71-11.99-13.99-11.99-4,0-7.57,1.43-10.28,4.14-3.86,3.86-3.86,7.85-3.86,16.42s0,12.57,3.86,16.42c2.71,2.71,6.43,4.14,10.28,4.14,7.28,0,12.71-4.43,13.99-11.99h-4.28c-1.14,5-4.71,8.14-9.71,8.14-2.71,0-5.28-1-7-2.86-2.57-2.57-2.86-5.43-2.86-13.85s.29-11.28,2.86-13.85c1.86-1.86,4.43-2.86,7-2.86Z"/>
    <path d="M568.49,293.17c0-3.57-2.57-6.14-6.43-6.14h-8v20.85h3.14v-8.71h4l4.43,8.71h3.71l-4.85-9.14c2.14-.71,4-2.57,4-5.57ZM557.07,296.46v-6.57h4.71c2.14,0,3.57,1.29,3.57,3.28s-1.43,3.28-3.57,3.28h-4.71Z"/>
    <polygon points="544.22 250.34 522.8 218.07 518.66 218.07 518.66 258.47 522.94 258.47 522.94 226.06 544.5 258.47 548.5 258.47 548.5 218.07 544.22 218.07 544.22 250.34"/>
    <polygon points="578.92 307.88 592.19 307.88 592.19 305.17 582.06 305.17 582.06 298.88 590.77 298.88 590.77 296.03 582.06 296.03 582.06 290.03 592.19 290.03 592.19 287.18 578.92 287.18 578.92 307.88"/>
    <path d="M685.58,239.34c-1.71-1.43-3.57-2.28-7.43-2.86l-4.43-.71c-2.14-.29-4.14-1.14-5.43-2.28s-1.86-2.71-1.86-4.71c0-4.43,3.14-7.57,8.57-7.57,4.28,0,7,1.14,9.42,3.43l2.71-2.71c-3.43-3.14-6.85-4.43-11.99-4.43-8,0-12.99,4.57-12.99,11.42,0,3.28,1,5.71,3,7.57,1.71,1.57,4.28,2.57,7.43,3l4.71.71c3,.43,4,.86,5.28,2,1.29,1.14,2,3,2,5,0,4.71-3.57,7.57-9.57,7.57-4.57,0-7.71-1.14-10.99-4.43l-3,3c3.86,3.86,7.85,5.28,13.85,5.28,8.42,0,13.99-4.43,13.99-11.42.14-3.28-1-6-3.28-7.85Z"/>
    <path d="M515.8,300.74c0,2.71-1.71,4.57-4.28,4.57s-4.28-1.71-4.28-4.57v-13.71h-3.14v13.85c0,4.28,3.14,7.14,7.43,7.14s7.43-2.86,7.43-7.14v-13.85h-3.14v13.71Z"/>
    <polygon points="619.18 258.47 644.31 258.47 644.31 254.62 623.47 254.62 623.47 240.05 641.17 240.05 641.17 236.06 623.47 236.06 623.47 221.92 644.31 221.92 644.31 218.07 619.18 218.07 619.18 258.47"/>
    <polygon points="395.15 307.88 408.42 307.88 408.42 305.17 398.29 305.17 398.29 298.88 407 298.88 407 296.03 398.29 296.03 398.29 290.03 408.42 290.03 408.42 287.18 395.15 287.18 395.15 307.88"/>
    <rect x="380.72" y="287.18" width="3.14" height="20.85"/>
    <rect x="396.29" y="218.07" width="4.28" height="40.41"/>
    <polygon points="366.3 301.74 356.74 287.18 353.88 287.18 353.88 307.88 357.02 307.88 357.02 293.32 366.59 307.88 369.44 307.88 369.44 287.18 366.3 287.18 366.3 301.74"/>
    <path d="M451.69,237.77c0-5.57.29-11.85-4-15.99-2.43-2.43-6-3.71-10.28-3.71h-13.85v40.41h13.85c4.14,0,7.85-1.29,10.28-3.71,4.28-4.28,4-11.42,4-16.99ZM444.69,251.62c-2.14,2.14-4.85,3-8,3h-8.85v-32.7h8.85c3.14,0,5.85.86,8,3,2.86,2.86,2.71,8,2.71,12.99s.14,10.85-2.71,13.71Z"/>
    <path d="M463.97,296.17l-2.43-.29c-1-.14-1.86-.43-2.28-1-.57-.43-.86-1.14-.86-1.86,0-1.86,1.29-3.28,3.86-3.28,1.71,0,3.28.43,4.57,1.57l2-2c-1.71-1.71-3.71-2.43-6.43-2.43-4.28,0-7,2.43-7,6.14,0,1.71.43,3,1.57,4,.86.86,2.28,1.43,4,1.71l2.43.29c1.29.14,1.71.43,2.28.86.57.43.86,1.29.86,2.14,0,2-1.57,3.14-4.28,3.14-2.14,0-3.86-.43-5.28-2l-2.14,2.14c2,2,4.28,2.71,7.43,2.71,4.43,0,7.43-2.28,7.43-6.14,0-1.71-.57-3.28-1.71-4.28-1-.71-2.14-1.14-4-1.43Z"/>
    <path d="M433.13,293.17c0-3.57-2.57-6.14-6.43-6.14h-8v20.85h3.14v-8.71h4l4.43,8.71h3.71l-4.85-9.14c2.28-.71,4-2.57,4-5.57ZM421.85,296.46v-6.57h4.71c2.14,0,3.57,1.29,3.57,3.28s-1.43,3.28-3.57,3.28h-4.71Z"/>
    <path d="M493.81,297.6c0-4,0-6.28-2-8.42-1.43-1.43-3.28-2.28-5.43-2.28-2.28,0-4,.86-5.43,2.28-2,2-2,4.28-2,8.42s0,6.28,2,8.42c1.43,1.43,3.28,2.28,5.43,2.28,1.57,0,3.14-.43,4.43-1.29l2.14,2.14,1.71-1.71-2-2c1.14-2.28,1.14-4.43,1.14-7.85ZM489.96,302.74l-2-2-1.71,1.71,2.14,2.14c-.57.43-1.29.71-2.14.71-1.29,0-2.43-.43-3.14-1.29-1-1.14-1.29-2.28-1.29-6.43s.14-5.28,1.29-6.43c.71-.86,1.86-1.29,3.14-1.29s2.43.43,3.14,1.29c1,1.14,1.29,2.28,1.29,6.43,0,2.57-.14,4-.71,5.14Z"/>
    <path d="M216.52,197.65c-14.71,49.41-40.27,76.25-78.25,82.53l-1.14.14v28.56h94.67v-112.23h-14.99l-.29,1ZM229.37,199.22v107.09h-89.53v-23.85c38.12-6.57,63.97-33.84,78.82-83.25,0,0,10.71,0,10.71,0Z"/>
    <path d="M218.09,187.08l-.43,1.57h15.56v-114.66h-2.57c-.86,46.41-5,83.39-12.57,113.09ZM230.65,186.08h-9.71c4.43-17.85,7.57-38.12,9.71-61.54v61.54Z"/>
    <path d="M273.06,291.6h2l-2.43,8.42c-.29.57-.29,1.14-.29,1.71s.29.86.71,1c.43,0,1-.29,1.43-.71s1-1,1.29-1.71c.86-1.43,1.43-3,1.43-4.71,0-2.14-.86-4-2.28-5.28-1.57-1.29-3.57-2-6.14-2-3,0-5.43,1-7,2.71-1.71,1.86-2.57,4-2.57,6.43,0,2.71.86,4.85,2.71,6.57,1.71,1.86,4,2.71,7,2.71,1.86,0,3.43-.29,4.71-.86,1.29-.43,2.43-1.29,3.28-2.14h2.14c-2.28,3.71-5.85,5.57-10.42,5.57-3.43,0-6.28-1.14-8.42-3.43-2.28-2.14-3.43-5-3.43-8.57s1.14-6.28,3.43-8.42c2.14-2.14,5-3.28,8.42-3.28,3.14,0,5.71.86,7.85,2.71,2.14,1.86,3.14,4.14,3.28,7,0,2.71-.86,5-2.57,6.57-1.57,1.71-3.14,2.57-4.57,2.57s-2.28-.71-2.57-2.14h0c-.43.57-.86,1-1.43,1.43s-1.43.71-2.43.71c-1.29,0-2.43-.57-3.14-1.57-.86-1-1.29-2.14-1.29-3.43,0-2.28.71-4.28,2-6.14,1.43-1.86,3.14-2.86,5.43-2.86,1.57,0,2.71.86,3.57,2.57h0l.29-1.43ZM264.06,299.46c0,.86.29,1.57.71,2.14s1.14.86,1.86.86,1.29-.29,2-.71c.57-.43,1.14-1,1.57-1.71.86-1.43,1.43-2.86,1.43-4.28,0-.71-.29-1.43-.71-2s-1.14-.86-1.86-.86-1.43.14-2,.57c-.57.43-1.14,1-1.57,1.57-1,1.57-1.43,3-1.43,4.43Z"/>
  </g>
</svg>